<?xml version="1.0" standalone="no"?><!DOCTYPE svg PUBLIC "-//W3C//DTD SVG 1.1//EN" "http://www.w3.org/Graphics/SVG/1.1/DTD/svg11.dtd"><svg t="1709186768886" class="icon" viewBox="0 0 1025 1024" version="1.1" xmlns="http://www.w3.org/2000/svg" p-id="50891" xmlns:xlink="http://www.w3.org/1999/xlink" width="200.1953125" height="200"><path d="M357.094178 421.181144c107.141633-107.168391 140.028013-261.084143 99.916797-399.292568C349.574997 33.87645 245.29654 80.730846 162.986934 163.093969c-101.923696 101.923696-149.447058 237.295704-143.506637 370.767848C140.161806 549.729696 265.633114 512.58869 357.094178 421.181144zM616.064388 695.992474c-84.182711 84.182711-122.233511 197.264764-115.410055 308.955367 130.020278 2.889934 260.95035-44.820738 360.144664-144.04181 75.941047-75.967806 121.537786-170.586391 137.619735-269.111738C864.679001 558.96143 718.897878 593.212501 616.064388 695.992474zM860.825755 163.120728c-99.408383-99.408383-230.525766-147.092296-360.760113-143.988293 40.352043 150.276576 3.211038 315.966134-112.921501 432.045155-98.712658 98.739417-233.442458 140.589945-363.944392 126.193791 13.807463 103.609491 60.04641 203.900909 139.787185 283.614926 82.577192 82.63071 187.310547 129.538622 295.04087 141.285669-6.047455-121.671579 36.231211-244.520539 127.986621-336.275949 112.439845-112.332811 271.225672-150.731473 417.541967-116.560677C1014.045782 410.932581 966.656214 268.951186 860.825755 163.120728z" fill="#AEED55" p-id="50892"></path></svg>
